<?xml version="1.0" encoding="UTF-8"?><!DOCTYPE svg PUBLIC "-//W3C//DTD SVG 1.1//EN" "http://www.w3.org/Graphics/SVG/1.1/DTD/svg11.dtd"><svg xmlns="http://www.w3.org/2000/svg"><symbol id="icon-document" viewBox="0 0 24 32">
    <path d="M14 0H0v32h24V9.998L14 0zm-2.082 12V4l8 8h-8z"/>
</symbol><symbol id="icon-gallery" viewBox="0 0 30 30">
    <path d="M27 26H8a2 2 0 0 1-2-2V11a2 2 0 0 1 2-2h19a2 2 0 0 1 2 2v13a2 2 0 0 1-2 2z"/>
    <path d="M6 7h18V6a2 2 0 0 0-2-2H3a2 2 0 0 0-2 2v14a2 2 0 0 0 2 2h1V9a2 2 0 0 1 2-2z"/>
</symbol><symbol id="icon-link" viewBox="0 0 1792 1792">
    <path d="M1520 1216q0-40-28-68l-208-208q-28-28-68-28-42 0-72 32 3 3 19 18.5t21.5 21.5 15 19 13 25.5 3.5 27.5q0 40-28 68t-68 28q-15 0-27.5-3.5t-25.5-13-19-15-21.5-21.5-18.5-19q-33 31-33 73 0 40 28 68l206 207q27 27 68 27 40 0 68-26l147-146q28-28 28-67zM817 511q0-40-28-68L583 236q-28-28-68-28-39 0-68 27L300 381q-28 28-28 67 0 40 28 68l208 208q27 27 68 27 42 0 72-31-3-3-19-18.5T607.5 680t-15-19-13-25.5T576 608q0-40 28-68t68-28q15 0 27.5 3.5t25.5 13 19 15 21.5 21.5 18.5 19q33-31 33-73zm895 705q0 120-85 203l-147 146q-83 83-203 83-121 0-204-85l-206-207q-83-83-83-203 0-123 88-209l-88-88q-86 88-208 88-120 0-204-84L164 652q-84-84-84-204t85-203L312 99q83-83 203-83 121 0 204 85l206 207q83 83 83 203 0 123-88 209l88 88q86-88 208-88 120 0 204 84l208 208q84 84 84 204z"/>
</symbol><symbol id="icon-quote-red" viewBox="0 0 500 500">
    <path clip-rule="evenodd" d="M36.992 416.569c0 20.078 16.262 36.344 36.34 36.344h118.111c20.079 0 36.343-16.266 36.343-36.344V271.202c0-20.079-16.264-36.342-36.343-36.342h-58.328c-10.089 0-18.17-8.177-18.17-18.17 0-3.271.815-5.542.815-5.542 13.264-43.977 46.785-79.227 89.762-94.852l.18-.182c12.997-5.54 22.083-18.445 22.083-33.437 0-20.077-16.264-36.341-36.343-36.341-4.906 0-9.536.998-13.804 2.723l-1.644.64C94.68 81.405 36.992 160.45 36.992 253.03v163.539zm236.223 0c0 20.078 16.262 36.344 36.341 36.344h118.112c20.078 0 36.34-16.266 36.34-36.344V271.202c0-20.079-16.262-36.342-36.34-36.342h-58.33c-10.088 0-18.169-8.177-18.169-18.17 0-3.362.813-5.542.813-5.542 13.267-43.977 46.787-79.227 89.765-94.852l.18-.182c12.995-5.54 22.081-18.445 22.081-33.437 0-20.077-16.262-36.341-36.34-36.341-4.906 0-9.538.998-13.805 2.723l-1.644.64C330.903 81.405 273.215 160.45 273.215 253.03v163.539z" fill-rule="evenodd"/>
</symbol><symbol id="icon-quote" viewBox="0 0 1792 1792">
    <path d="M832 960v384q0 80-56 136t-136 56H256q-80 0-136-56t-56-136V640q0-104 40.5-198.5T214 278t163.5-109.5T576 128h64q26 0 45 19t19 45v128q0 26-19 45t-45 19h-64q-106 0-181 75t-75 181v32q0 40 28 68t68 28h224q80 0 136 56t56 136zm896 0v384q0 80-56 136t-136 56h-384q-80 0-136-56t-56-136V640q0-104 40.5-198.5T1110 278t163.5-109.5T1472 128h64q26 0 45 19t19 45v128q0 26-19 45t-45 19h-64q-106 0-181 75t-75 181v32q0 40 28 68t68 28h224q80 0 136 56t56 136z"/>
</symbol></svg>